<svg width="117" height="38" viewBox="0 0 117 38" fill="none" xmlns="http://www.w3.org/2000/svg">
<g clip-path="url(#clip0_495_3380)">
<rect x="79" width="38" height="38" rx="12" fill="#445AF7"/>
<path fill-rule="evenodd" clip-rule="evenodd" d="M90.253 7.15161L100.252 7.15228C105.005 7.1526 108.857 11.0058 108.856 15.7583C108.855 19.405 106.586 22.5215 103.383 23.7736L108.986 29.3761L107.247 31.1145C106.287 32.0746 104.73 32.0746 103.77 31.1145L97.2288 24.573C96.2687 23.6129 96.2687 22.0563 97.2288 21.0962L98.8223 19.5027C98.8757 19.4492 98.9465 19.4441 99.0194 19.4441L100.251 19.4442C102.288 19.4445 103.939 17.7938 103.939 15.7574C103.939 13.7207 102.289 12.0694 100.252 12.0692L90.2527 12.0686L90.253 7.15161ZM90.235 14.0355H95.1519V29.3601C95.1519 30.7179 94.0512 31.8186 92.6934 31.8186H90.235V14.0355ZM85.2323 7.19842H90.0709V8.26456H85.2323V7.19842ZM86.4625 8.46137H90.0709V9.52752H86.4625V8.46137ZM90.0709 9.72433H87.6926V10.7905H90.0709V9.72433ZM88.9227 10.9873H90.0709V12.0534H88.9227V10.9873Z" fill="white"/>
</g>
<g clip-path="url(#clip1_495_3380)">
<path d="M1.63907 26.9131L6.05364 24.0791L5.78413 24.0761C5.06551 24.0603 4.2988 23.8018 3.48401 23.3005C2.6693 22.7914 1.98562 22.0924 1.43296 21.2034C0.880395 20.3066 0.610229 19.3074 0.622468 18.2059C0.634186 17.1513 0.906739 16.1777 1.44012 15.2851C1.98141 14.3848 2.70025 13.6779 3.59663 13.1644C4.50092 12.6432 5.48037 12.3884 6.53499 12.4001L12.4057 12.4654L12.2617 25.4255L4.11652 30.7143L1.63907 26.9131ZM7.81473 19.575L7.84442 16.9033L6.48512 16.8882C6.11796 16.8841 5.804 17.0134 5.54326 17.2761C5.28259 17.5311 5.15022 17.8421 5.14615 18.2093C5.14198 18.5843 5.26736 18.9021 5.52229 19.1628C5.77723 19.4234 6.08827 19.5558 6.45544 19.5599L7.81473 19.575ZM10.92 19.6095L13.5214 19.6384L14.293 21.9205L13.4711 24.1615L10.8697 24.1326L10.92 19.6095ZM12.6993 21.9028L13.5331 19.6385L18.3375 19.6919L19.1203 22.021L18.2873 24.215L13.4829 24.1617L12.6993 21.9028ZM17.5037 21.9562L18.3375 19.6919L23.1419 19.7453L23.9247 22.0744L23.0916 24.2684L18.2873 24.215L17.5037 21.9562ZM22.3081 22.0096L23.1419 19.7453L27.9463 19.7987L28.7291 22.1278L27.896 24.3218L23.0916 24.2684L22.3081 22.0096ZM27.1125 22.063L27.9463 19.7987L32.7507 19.852L33.5334 22.1812L32.7004 24.3752L27.896 24.3218L27.1125 22.063ZM32.6418 24.3745L31.9169 22.1163L32.7155 19.8516L32.7507 19.852C33.1178 19.8561 33.4357 19.7307 33.7041 19.4759C33.9726 19.221 34.1089 18.9061 34.1131 18.5312L34.1652 13.8439L38.7007 12.781L38.6363 18.5814C38.6321 18.9564 38.7575 19.2742 39.0124 19.5349C39.2673 19.7955 39.5784 19.9279 39.9455 19.932L40.7406 22.2144L39.8953 24.4551C39.2313 24.4478 38.5919 24.3313 37.9772 24.1057C37.3625 23.8801 36.8112 23.5653 36.3235 23.1615C35.8113 23.5542 35.2493 23.8566 34.6375 24.0686C34.0258 24.2805 33.3801 24.3827 32.7004 24.3752L32.6418 24.3745ZM35.297 6.90686L38.7538 6.94527L38.7159 10.3552L35.2591 10.3168L35.297 6.90686ZM39.1117 22.1963L39.9338 19.9318L41.4923 19.9492C41.8673 19.9533 42.1851 19.8279 42.4458 19.573C42.7064 19.3181 42.8389 19.0031 42.843 18.6281L42.8951 13.9409L47.4306 12.878L47.3662 18.6784C47.3545 19.733 47.0819 20.7066 46.5485 21.5992C46.0151 22.4918 45.2963 23.1987 44.392 23.7199C43.4878 24.2333 42.5045 24.4841 41.4421 24.4723L39.8836 24.455L39.1117 22.1963ZM46.5102 30.3181L39.5146 30.2403L39.5525 26.8304L46.5481 26.9081L46.5102 30.3181ZM49.9642 27.45L54.3788 24.6161L54.1093 24.6131C53.3906 24.5973 52.6239 24.3387 51.8091 23.8375C50.9944 23.3284 50.3108 22.6293 49.7581 21.7403C49.2055 20.8435 48.9354 19.8444 48.9476 18.7429C48.9593 17.6882 49.2319 16.7146 49.7653 15.8221C50.3065 14.9218 51.0254 14.2149 51.9218 13.7014C52.826 13.1801 53.8055 12.9254 54.8601 12.9371L60.7309 13.0023L60.5869 25.9625L52.4417 31.2512L49.9642 27.45ZM56.1399 20.1119L56.1695 17.4402L54.8103 17.4251C54.4431 17.421 54.1291 17.5504 53.8684 17.8131C53.6077 18.068 53.4754 18.3791 53.4713 18.7462C53.4671 19.1212 53.5925 19.439 53.8474 19.6997C54.1024 19.9604 54.4134 20.0927 54.7806 20.0968L56.1399 20.1119ZM61.1668 27.5628L63.6342 25.9377L63.7645 14.208L68.3004 13.1099L68.1305 28.4019L63.6209 31.352L61.1668 27.5628Z" fill="#445AF7"/>
</g>
<defs>
<clipPath id="clip0_495_3380">
<rect width="38" height="38" fill="white" transform="translate(79)"/>
</clipPath>
<clipPath id="clip1_495_3380">
<rect width="69" height="26" fill="white" transform="translate(0 6)"/>
</clipPath>
</defs>
</svg>
