<svg width="20" height="21" viewBox="0 0 20 21" fill="none" xmlns="http://www.w3.org/2000/svg">
<path d="M4.1665 8.83317H5.83317C7.49984 8.83317 8.33317 7.99984 8.33317 6.33317V4.6665C8.33317 2.99984 7.49984 2.1665 5.83317 2.1665H4.1665C2.49984 2.1665 1.6665 2.99984 1.6665 4.6665V6.33317C1.6665 7.99984 2.49984 8.83317 4.1665 8.83317ZM14.1665 8.83317H15.8332C17.4998 8.83317 18.3332 7.99984 18.3332 6.33317V4.6665C18.3332 2.99984 17.4998 2.1665 15.8332 2.1665H14.1665C12.4998 2.1665 11.6665 2.99984 11.6665 4.6665V6.33317C11.6665 7.99984 12.4998 8.83317 14.1665 8.83317ZM14.1665 18.8332H15.8332C17.4998 18.8332 18.3332 17.9998 18.3332 16.3332V14.6665C18.3332 12.9998 17.4998 12.1665 15.8332 12.1665H14.1665C12.4998 12.1665 11.6665 12.9998 11.6665 14.6665V16.3332C11.6665 17.9998 12.4998 18.8332 14.1665 18.8332ZM4.1665 18.8332H5.83317C7.49984 18.8332 8.33317 17.9998 8.33317 16.3332V14.6665C8.33317 12.9998 7.49984 12.1665 5.83317 12.1665H4.1665C2.49984 12.1665 1.6665 12.9998 1.6665 14.6665V16.3332C1.6665 17.9998 2.49984 18.8332 4.1665 18.8332Z" stroke="#737A85" stroke-width="2" stroke-miterlimit="10" stroke-linecap="round" stroke-linejoin="round"/>
</svg>
