<svg width="21" height="21" viewBox="0 0 21 21" fill="none" xmlns="http://www.w3.org/2000/svg">
<path d="M5.05004 15.9085V13.4752C5.05004 12.6668 5.68337 11.9418 6.58337 11.9418C7.39171 11.9418 8.11671 12.5752 8.11671 13.4752V15.8168C8.11671 17.4418 6.76671 18.7918 5.14171 18.7918C3.51671 18.7918 2.16671 17.4335 2.16671 15.8168V10.6835C2.07504 6.00016 5.77504 2.2085 10.4584 2.2085C15.1417 2.2085 18.8334 6.00016 18.8334 10.5918V15.7252C18.8334 17.3502 17.4834 18.7002 15.8584 18.7002C14.2334 18.7002 12.8834 17.3502 12.8834 15.7252V13.3835C12.8834 12.5752 13.5167 11.8502 14.4167 11.8502C15.225 11.8502 15.95 12.4835 15.95 13.3835V15.9085" stroke="#737A85" stroke-width="2" stroke-linecap="round" stroke-linejoin="round"/>
</svg>
