<svg width="20" height="21" viewBox="0 0 20 21" fill="none" xmlns="http://www.w3.org/2000/svg">
<path d="M8.37477 2.60824L3.35811 5.88324C1.74977 6.93324 1.74977 9.28324 3.35811 10.3332L8.37477 13.6082C9.27477 14.1999 10.7581 14.1999 11.6581 13.6082L16.6498 10.3332C18.2498 9.28324 18.2498 6.94157 16.6498 5.89157L11.6581 2.61657C10.7581 2.01657 9.27477 2.01657 8.37477 2.60824Z" stroke="#737A85" stroke-width="2" stroke-linecap="round" stroke-linejoin="round"/>
<path d="M4.69144 11.4L4.68311 15.3083C4.68311 16.3667 5.49977 17.5 6.49977 17.8333L9.15811 18.7167C9.61644 18.8667 10.3748 18.8667 10.8414 18.7167L13.4998 17.8333C14.4998 17.5 15.3164 16.3667 15.3164 15.3083V11.4417M17.8331 13V8" stroke="#737A85" stroke-width="2" stroke-linecap="round" stroke-linejoin="round"/>
</svg>
